<?xml version="1.0" encoding="iso-8859-1"?>
<!-- Generator: Adobe Illustrator 19.0.0, SVG Export Plug-In . SVG Version: 6.00 Build 0)  -->
<svg version="1.1" id="Layer_1" xmlns="http://www.w3.org/2000/svg" xmlns:xlink="http://www.w3.org/1999/xlink" x="0px" y="0px"
	 viewBox="0 0 356.725 356.725" style="enable-background:new 0 0 356.725 356.725;" xml:space="preserve">
<g>
	<rect y="6.309" style="fill:#6EBEFF;" width="356.725" height="344.107"/>
	<rect x="10.864" y="122.473" style="fill:#FFFFFF;" width="139.502" height="227.943"/>
	<g>
		<rect x="17.866" y="129.476" style="fill:#2D4151;" width="59.441" height="220.94"/>
		<rect x="84.308" y="129.476" style="fill:#2D4151;" width="59.441" height="220.94"/>
	</g>
	<rect x="157.866" y="122.473" style="fill:#FFFFFF;" width="189" height="211.003"/>
	<g>
		<rect x="163.866" y="129.476" style="fill:#2D4151;" width="85" height="197.5"/>
	</g>
	<g>
		<rect x="255.866" y="129.476" style="fill:#2D4151;" width="85" height="197.5"/>
	</g>
	<path style="opacity:0.2;fill:#FCFAFA;enable-background:new    ;" d="M246.301,190.676V324.66h-76.646
		C169.655,324.659,236.912,303.143,246.301,190.676z"/>
	<path style="opacity:0.2;fill:#FCFAFA;enable-background:new    ;" d="M139.635,253.363v93.296H86.264
		C86.264,346.66,133.097,331.677,139.635,253.363z"/>
	<path style="opacity:0.2;fill:#FCFAFA;enable-background:new    ;" d="M73.635,253.363v93.296H20.264
		C20.264,346.66,67.097,331.677,73.635,253.363z"/>
	<path style="opacity:0.2;fill:#FCFAFA;enable-background:new    ;" d="M338.301,190.676V324.66h-76.646
		C261.655,324.659,328.912,303.143,338.301,190.676z"/>
	<g>
		<rect x="64.307" y="241.976" style="fill:#FFFFFF;" width="5" height="18"/>
		<rect x="92.307" y="241.976" style="fill:#FFFFFF;" width="5" height="18"/>
	</g>
	<rect x="163.866" y="129.476" style="fill:#839BAA;" width="85" height="143"/>
	<g>
		<rect x="255.866" y="129.476" style="fill:#839BAA;" width="85" height="143"/>
		<g>
			<rect x="163.866" y="129.476" style="fill:#678391;" width="85" height="3"/>
			<rect x="255.866" y="129.476" style="fill:#678391;" width="85" height="3"/>
		</g>
		<g>
			<rect x="163.866" y="136.581" style="fill:#678391;" width="85" height="3"/>
			<rect x="255.866" y="136.581" style="fill:#678391;" width="85" height="3"/>
		</g>
		<g>
			<rect x="163.866" y="143.686" style="fill:#678391;" width="85" height="3"/>
			<rect x="255.866" y="143.686" style="fill:#678391;" width="85" height="3"/>
		</g>
		<g>
			<rect x="163.866" y="150.792" style="fill:#678391;" width="85" height="3"/>
			<rect x="255.866" y="150.792" style="fill:#678391;" width="85" height="3"/>
		</g>
		<g>
			<rect x="163.866" y="157.897" style="fill:#678391;" width="85" height="3"/>
			<rect x="255.866" y="157.897" style="fill:#678391;" width="85" height="3"/>
		</g>
		<g>
			<rect x="163.866" y="165.002" style="fill:#678391;" width="85" height="3"/>
			<rect x="255.866" y="165.002" style="fill:#678391;" width="85" height="3"/>
		</g>
		<g>
			<rect x="163.866" y="172.108" style="fill:#678391;" width="85" height="3"/>
			<rect x="255.866" y="172.108" style="fill:#678391;" width="85" height="3"/>
		</g>
		<g>
			<rect x="163.866" y="179.213" style="fill:#678391;" width="85" height="3"/>
			<rect x="255.866" y="179.213" style="fill:#678391;" width="85" height="3"/>
		</g>
		<g>
			<rect x="163.866" y="186.318" style="fill:#678391;" width="85" height="3"/>
			<rect x="255.866" y="186.318" style="fill:#678391;" width="85" height="3"/>
		</g>
		<g>
			<rect x="163.866" y="193.423" style="fill:#678391;" width="85" height="3"/>
			<rect x="255.866" y="193.423" style="fill:#678391;" width="85" height="3"/>
		</g>
		<g>
			<rect x="163.866" y="207.634" style="fill:#678391;" width="85" height="3"/>
			<rect x="255.866" y="207.634" style="fill:#678391;" width="85" height="3"/>
		</g>
		<g>
			<rect x="163.866" y="221.844" style="fill:#678391;" width="85" height="3"/>
			<rect x="255.866" y="221.844" style="fill:#678391;" width="85" height="3"/>
		</g>
		<g>
			<rect x="163.866" y="236.055" style="fill:#678391;" width="85" height="3"/>
			<rect x="255.866" y="236.055" style="fill:#678391;" width="85" height="3"/>
		</g>
		<g>
			<rect x="163.866" y="200.529" style="fill:#678391;" width="85" height="3"/>
			<rect x="255.866" y="200.529" style="fill:#678391;" width="85" height="3"/>
		</g>
		<g>
			<rect x="163.866" y="214.739" style="fill:#678391;" width="85" height="3"/>
			<rect x="255.866" y="214.739" style="fill:#678391;" width="85" height="3"/>
		</g>
		<g>
			<rect x="163.866" y="228.949" style="fill:#678391;" width="85" height="3"/>
			<rect x="255.866" y="228.949" style="fill:#678391;" width="85" height="3"/>
		</g>
		<g>
			<rect x="163.866" y="243.16" style="fill:#678391;" width="85" height="3"/>
			<rect x="255.866" y="243.16" style="fill:#678391;" width="85" height="3"/>
		</g>
		<g>
			<rect x="163.866" y="250.265" style="fill:#678391;" width="85" height="3"/>
			<rect x="255.866" y="250.265" style="fill:#678391;" width="85" height="3"/>
		</g>
		<g>
			<rect x="163.866" y="257.371" style="fill:#678391;" width="85" height="3"/>
			<rect x="255.866" y="257.371" style="fill:#678391;" width="85" height="3"/>
		</g>
		<g>
			<rect x="163.866" y="264.476" style="fill:#678391;" width="85" height="3"/>
			<rect x="255.866" y="264.476" style="fill:#678391;" width="85" height="3"/>
		</g>
	</g>
	<rect x="10.864" y="18.309" style="fill:#FFFFFF;" width="336.002" height="96.167"/>
	<path style="fill:#F93030;" d="M297.032,28.976c-20.987,0-38,17.013-38,38s17.013,38,38,38s38-17.013,38-38
		S318.019,28.976,297.032,28.976z M306.033,75.976v21.333h-18V75.976H266.7v-18h21.333V36.643h18v21.333h21.333v18H306.033z"/>
	<g>
		<path style="fill:#2D4151;" d="M67.302,45.807v2.459c0,1.888-0.46,2.832-1.379,2.832c-0.323,0-0.794-0.161-1.416-0.484
			c-2.806-1.465-4.837-2.397-6.091-2.794c-1.256-0.397-2.827-0.596-4.714-0.596c-6.036,0-10.88,2.323-14.531,6.967
			c-2.832,3.577-4.247,7.7-4.247,12.37c0,5.812,2.061,10.557,6.185,14.233c3.577,3.18,7.713,4.769,12.407,4.769
			c2.086,0,3.962-0.279,5.627-0.838c1.664-0.559,3.526-1.533,5.589-2.925c0.497-0.323,0.894-0.484,1.191-0.484
			c0.919,0,1.379,0.957,1.379,2.869v2.72c0,1.242-0.174,2.025-0.522,2.347c-0.497,0.423-1.664,0.994-3.502,1.714
			c-3.08,1.217-6.346,1.826-9.798,1.826c-4.571,0-8.806-1.068-12.706-3.204c-4.695-2.583-8.284-6.297-10.768-11.14
			c-1.887-3.726-2.832-7.663-2.832-11.811c0-4.346,1.03-8.482,3.093-12.407c2.409-4.57,5.799-8.122,10.172-10.656
			c4.123-2.384,8.669-3.577,13.637-3.577c4.471,0,8.407,0.969,11.81,2.906c0.695,0.398,1.104,0.726,1.229,0.987
			C67.24,44.149,67.302,44.789,67.302,45.807z"/>
		<path style="fill:#2D4151;" d="M84.628,84.593h12.146c1.217,0,1.987,0.162,2.31,0.484c0.323,0.323,0.485,1.093,0.485,2.31v1.639
			c0,1.217-0.163,1.988-0.485,2.31c-0.323,0.323-1.093,0.484-2.31,0.484H79.747c-1.217,0-1.987-0.161-2.31-0.484
			c-0.323-0.322-0.484-1.093-0.484-2.31V43.758c0-1.217,0.161-1.987,0.484-2.31c0.323-0.322,1.093-0.484,2.31-0.484h2.087
			c1.217,0,1.987,0.162,2.311,0.484c0.321,0.323,0.484,1.093,0.484,2.31L84.628,84.593L84.628,84.593z"/>
		<path style="fill:#2D4151;" d="M114.546,43.758v45.269c0,1.217-0.163,1.988-0.484,2.31c-0.324,0.323-1.094,0.484-2.311,0.484
			h-2.087c-1.217,0-1.987-0.161-2.31-0.484c-0.323-0.322-0.484-1.093-0.484-2.31V43.758c0-1.217,0.161-1.987,0.484-2.31
			c0.323-0.322,1.093-0.484,2.31-0.484h2.087c1.217,0,1.987,0.162,2.311,0.484C114.384,41.771,114.546,42.541,114.546,43.758z"/>
		<path style="fill:#2D4151;" d="M163.838,76.285V43.758c0-1.217,0.161-1.987,0.484-2.31c0.323-0.322,1.093-0.484,2.311-0.484h2.087
			c1.217,0,1.987,0.162,2.31,0.484c0.323,0.323,0.484,1.093,0.484,2.31v45.903c0,1.043-0.125,1.77-0.372,2.179
			c-0.25,0.41-0.683,0.615-1.305,0.615c-0.472,0-1.13-0.435-1.974-1.304l-33.421-34.949v32.825c0,1.217-0.163,1.988-0.484,2.31
			c-0.324,0.323-1.094,0.484-2.311,0.484h-2.087c-1.217,0-1.987-0.161-2.31-0.484c-0.323-0.322-0.484-1.093-0.484-2.31v-46.2
			c0-1.068,0.124-1.807,0.372-2.217s0.683-0.615,1.305-0.615c0.472,0,1.13,0.447,1.974,1.341L163.838,76.285z"/>
		<path style="fill:#2D4151;" d="M191.41,43.758v45.269c0,1.217-0.163,1.988-0.484,2.31c-0.324,0.323-1.094,0.484-2.311,0.484
			h-2.087c-1.217,0-1.987-0.161-2.31-0.484c-0.323-0.322-0.484-1.093-0.484-2.31V43.758c0-1.217,0.161-1.987,0.484-2.31
			c0.323-0.322,1.093-0.484,2.31-0.484h2.087c1.217,0,1.987,0.162,2.311,0.484C191.248,41.771,191.41,42.541,191.41,43.758z"/>
		<path style="fill:#2D4151;" d="M241.225,45.807v2.459c0,1.888-0.46,2.832-1.379,2.832c-0.323,0-0.794-0.161-1.416-0.484
			c-2.806-1.465-4.837-2.397-6.091-2.794c-1.256-0.397-2.827-0.596-4.714-0.596c-6.036,0-10.88,2.323-14.531,6.967
			c-2.832,3.577-4.247,7.7-4.247,12.37c0,5.812,2.061,10.557,6.185,14.233c3.577,3.18,7.713,4.769,12.407,4.769
			c2.087,0,3.962-0.279,5.627-0.838c1.664-0.559,3.526-1.533,5.589-2.925c0.497-0.323,0.894-0.484,1.191-0.484
			c0.919,0,1.379,0.957,1.379,2.869v2.72c0,1.242-0.174,2.025-0.522,2.347c-0.497,0.423-1.664,0.994-3.502,1.714
			c-3.08,1.217-6.346,1.826-9.798,1.826c-4.571,0-8.806-1.068-12.706-3.204c-4.695-2.583-8.284-6.297-10.768-11.14
			c-1.887-3.726-2.832-7.663-2.832-11.811c0-4.346,1.03-8.482,3.093-12.407c2.409-4.57,5.799-8.122,10.172-10.656
			c4.123-2.384,8.669-3.577,13.637-3.577c4.471,0,8.407,0.969,11.81,2.906c0.695,0.398,1.104,0.726,1.229,0.987
			C241.163,44.149,241.225,44.789,241.225,45.807z"/>
	</g>
</g>
<g>
</g>
<g>
</g>
<g>
</g>
<g>
</g>
<g>
</g>
<g>
</g>
<g>
</g>
<g>
</g>
<g>
</g>
<g>
</g>
<g>
</g>
<g>
</g>
<g>
</g>
<g>
</g>
<g>
</g>
</svg>
