<?xml version="1.0" encoding="UTF-8" standalone="no"?>
<!-- Created with Inkscape (http://www.inkscape.org/) -->

<svg
   xmlns:dc="http://purl.org/dc/elements/1.1/"
   xmlns:cc="http://creativecommons.org/ns#"
   xmlns:rdf="http://www.w3.org/1999/02/22-rdf-syntax-ns#"
   xmlns:svg="http://www.w3.org/2000/svg"
   xmlns="http://www.w3.org/2000/svg"
   xmlns:sodipodi="http://sodipodi.sourceforge.net/DTD/sodipodi-0.dtd"
   xmlns:inkscape="http://www.inkscape.org/namespaces/inkscape"
   id="svg2"
   version="1.1"
   inkscape:version="0.91 r13725"
   xml:space="preserve"
   width="716.17786"
   height="810"
   viewBox="0 0 716.17787 810"
   sodipodi:docname="publicdomainq-medicine-doctor-man.svg"
   inkscape:export-filename="/media/sdb1/_GRAFIKA/Publicdomainq/lidi/publicdomainq-medicine-doctor-man.png"
   inkscape:export-xdpi="88.930695"
   inkscape:export-ydpi="88.930695"><title
     id="title7784">Medicine doctor - man, with stethoscope</title><metadata
     id="metadata8"><rdf:RDF><cc:Work
         rdf:about=""><dc:format>image/svg+xml</dc:format><dc:type
           rdf:resource="http://purl.org/dc/dcmitype/StillImage" /><dc:title>Medicine doctor - man, with stethoscope</dc:title><cc:license
           rdf:resource="http://creativecommons.org/publicdomain/zero/1.0/" /><dc:subject><rdf:Bag><rdf:li>man</rdf:li><rdf:li>male</rdf:li><rdf:li>stethoscope</rdf:li><rdf:li>work</rdf:li><rdf:li>hospital</rdf:li><rdf:li>ambulance</rdf:li><rdf:li>medicine</rdf:li><rdf:li>doctor</rdf:li><rdf:li>smile</rdf:li><rdf:li>health</rdf:li><rdf:li>cure</rdf:li><rdf:li>injury</rdf:li><rdf:li>tie</rdf:li><rdf:li>publicdomainq.net</rdf:li></rdf:Bag></dc:subject><dc:description>This image was adapted from a picture posted to publicdomainq.net. All of the images on these sites are in the public domain i.e. CC0. This site is only in Japanese but can be easily navigated with Google Translate.</dc:description></cc:Work><cc:License
         rdf:about="http://creativecommons.org/publicdomain/zero/1.0/"><cc:permits
           rdf:resource="http://creativecommons.org/ns#Reproduction" /><cc:permits
           rdf:resource="http://creativecommons.org/ns#Distribution" /><cc:permits
           rdf:resource="http://creativecommons.org/ns#DerivativeWorks" /></cc:License></rdf:RDF></metadata><defs
     id="defs6" /><sodipodi:namedview
     pagecolor="#ffffff"
     bordercolor="#666666"
     borderopacity="1"
     objecttolerance="10"
     gridtolerance="10"
     guidetolerance="10"
     inkscape:pageopacity="0"
     inkscape:pageshadow="2"
     inkscape:window-width="1920"
     inkscape:window-height="1125"
     id="namedview4"
     showgrid="false"
     inkscape:zoom="0.42188482"
     inkscape:cx="379.94484"
     inkscape:cy="177.71489"
     inkscape:window-x="0"
     inkscape:window-y="0"
     inkscape:window-maximized="1"
     inkscape:current-layer="svg2"
     fit-margin-top="5"
     fit-margin-left="5"
     fit-margin-bottom="5"
     fit-margin-right="5" /><g
     id="g12"
     transform="matrix(0.54160068,0,0,-0.54160068,4.9976404,804.94609)"><path
       d="M 923.652,442.41 886.426,385.629 849.199,442.41"
       style="fill:none;stroke:#231f20;stroke-width:12;stroke-linecap:round;stroke-linejoin:round;stroke-miterlimit:10;stroke-dasharray:none;stroke-opacity:1"
       id="path14"
       inkscape:connector-curvature="0" /><path
       d="m 1296.87,7 c 0,0 -11.79,213.832 -18.81,294.461 -9,103.34 -32.73,113.668 -67.72,137.5 -59.83,40.73 -204.52,82.312 -204.52,82.312 l -238.8,0 c 0,0 -131.594,-21.71 -191.43,-62.445 l -158.332,-140 -59.168,173.344 c 0,0 -23.332,5.82 -37.5,-0.84 -14.164,-6.66 -76.664,-46.66 -84.164,-55.832 -7.5,-9.172 -23.328,-18.328 -12.5,-40 10.832,-21.672 95,-220.012 110,-234.168 15,-14.16 42.496,-34.992 78.332,-24.16 35.832,10.828 183.332,105 183.332,105 L 618.086,7 1296.87,7"
       style="fill:#ffffff;fill-opacity:1;fill-rule:nonzero;stroke:none"
       id="path16"
       inkscape:connector-curvature="0" /><path
       d="M 912.031,112.031 C 785.293,118.871 665.598,145.34 594.453,196.961 596.426,196.32 622.258,7 622.258,7 l 672.532,0 c 0,0 -7,151.969 -12.86,228.199 -81.09,-72.5 -215.15,-131.508 -369.899,-123.168"
       style="fill:#e0e6e8;fill-opacity:1;fill-rule:nonzero;stroke:none"
       id="path18"
       inkscape:connector-curvature="0" /><path
       d="m 943.098,590.629 c 0,0 -0.586,-38.43 12.039,-54.375 L 888.516,458 817.715,536.254 c 12.629,15.945 12.043,54.375 12.043,54.375 l 113.34,0"
       style="fill:#fcd0b4;fill-opacity:1;fill-rule:nonzero;stroke:none"
       id="path20"
       inkscape:connector-curvature="0" /><path
       d="m 835.41,578.266 104.395,0 6.836,-31.856 c 0,0 -55.977,-44.875 -131.309,-28.34 l 20.078,60.196"
       style="fill:#e59686;fill-opacity:1;fill-rule:nonzero;stroke:none"
       id="path22"
       inkscape:connector-curvature="0" /><path
       d="M 778.926,442.41 885.762,466.328 949.336,453 994.57,442.41 888.926,102.172 l -110,340.238"
       style="fill:#ffffff;fill-opacity:1;fill-rule:nonzero;stroke:none"
       id="path24"
       inkscape:connector-curvature="0" /><path
       d="m 851.211,234.879 21.328,149.293 -35.41,72.348 50.957,9.808 48.215,-9.808 -35.403,-72.348 25.938,-154.922 -38.75,-111.871 -36.875,117.5"
       style="fill:#5784cc;fill-opacity:1;fill-rule:nonzero;stroke:none"
       id="path26"
       inkscape:connector-curvature="0" /><path
       d="m 1038.46,511.262 79.67,-58.922 -71.66,-26.391 66.43,-57.308 L 863.926,28.6289"
       style="fill:none;stroke:#656263;stroke-width:12;stroke-linecap:round;stroke-linejoin:round;stroke-miterlimit:10;stroke-dasharray:none;stroke-opacity:1"
       id="path28"
       inkscape:connector-curvature="0" /><path
       d="m 829.758,590.629 c 0,0 0.586,-38.43 -12.043,-54.375"
       style="fill:none;stroke:#231f20;stroke-width:14;stroke-linecap:round;stroke-linejoin:round;stroke-miterlimit:10;stroke-dasharray:none;stroke-opacity:1"
       id="path30"
       inkscape:connector-curvature="0" /><path
       d="m 850.586,233 21.953,151.172 -35.41,72.348 50.957,9.808 48.215,-9.808 -35.403,-72.348 24.063,-149.922"
       style="fill:none;stroke:#24487a;stroke-width:7.5;stroke-linecap:round;stroke-linejoin:round;stroke-miterlimit:10;stroke-dasharray:none;stroke-opacity:1"
       id="path32"
       inkscape:connector-curvature="0" /><path
       d="M 731.504,514.406 653.613,452.34 725.273,425.949 658.848,368.641 877.266,86.9609"
       style="fill:none;stroke:#656263;stroke-width:12;stroke-linecap:round;stroke-linejoin:round;stroke-miterlimit:10;stroke-dasharray:none;stroke-opacity:1"
       id="path34"
       inkscape:connector-curvature="0" /><path
       d="m 788.516,528.832 c 0,0 -152.555,-34.609 -208.93,-70.832 C 518.953,419.051 424.223,324.988 424.223,324.988"
       style="fill:none;stroke:#231f20;stroke-width:14;stroke-linecap:round;stroke-linejoin:round;stroke-miterlimit:10;stroke-dasharray:none;stroke-opacity:1"
       id="path36"
       inkscape:connector-curvature="0" /><path
       d="m 885.762,462.379 c -54.344,51.559 -69.356,93.121 -62.024,113.953 0,0 -19.375,-11.25 -33.125,-42.707 -28.593,-65.406 2.785,-122.934 5.813,-140.805 0,0 57.937,70.891 89.336,69.559"
       style="fill:#ffffff;fill-opacity:1;fill-rule:nonzero;stroke:none"
       id="path38"
       inkscape:connector-curvature="0" /><path
       d="m 885.762,462.379 c -54.344,51.559 -69.356,93.121 -62.024,113.953 0,0 -19.375,-11.25 -33.125,-42.707 -28.593,-65.406 2.785,-122.934 5.813,-140.805 0,0 57.937,70.891 89.336,69.559 z"
       style="fill:none;stroke:#231f20;stroke-width:10;stroke-linecap:round;stroke-linejoin:round;stroke-miterlimit:10;stroke-dasharray:none;stroke-opacity:1"
       id="path40"
       inkscape:connector-curvature="0" /><path
       d="m 823.738,576.332 c 0,0 -19.375,-11.25 -33.125,-42.707 -28.593,-65.406 2.785,-122.934 5.813,-140.805 l 91.66,-275.441"
       style="fill:none;stroke:#231f20;stroke-width:12;stroke-linecap:round;stroke-linejoin:round;stroke-miterlimit:10;stroke-dasharray:none;stroke-opacity:1"
       id="path42"
       inkscape:connector-curvature="0" /><path
       d="m 984.336,528.832 c 0,0 166.174,-49.141 226.004,-89.871 34.99,-23.832 58.72,-34.16 67.72,-137.5 C 1285.08,220.832 1296.87,7 1296.87,7"
       style="fill:none;stroke:#231f20;stroke-width:14;stroke-linecap:round;stroke-linejoin:round;stroke-miterlimit:10;stroke-dasharray:none;stroke-opacity:1"
       id="path44"
       inkscape:connector-curvature="0" /><path
       d="M 586.84,313.129 C 589.34,301.461 618.09,7 618.09,7"
       style="fill:none;stroke:#231f20;stroke-width:14;stroke-linecap:round;stroke-linejoin:round;stroke-miterlimit:10;stroke-dasharray:none;stroke-opacity:1"
       id="path46"
       inkscape:connector-curvature="0" /><path
       d="m 1218.44,265.469 c 0,0 -26.93,-68.797 -50.26,-103.797"
       style="fill:none;stroke:#656263;stroke-width:10;stroke-linecap:round;stroke-linejoin:round;stroke-miterlimit:10;stroke-dasharray:none;stroke-opacity:1"
       id="path48"
       inkscape:connector-curvature="0" /><path
       d="M 1186.02,313.129 C 1183.52,301.461 1149.34,7 1149.34,7"
       style="fill:none;stroke:#231f20;stroke-width:14;stroke-linecap:round;stroke-linejoin:round;stroke-miterlimit:10;stroke-dasharray:none;stroke-opacity:1"
       id="path50"
       inkscape:connector-curvature="0" /><path
       d="m 887.09,462.379 c 54.348,51.559 69.355,93.121 62.019,113.953 0,0 19.375,-11.25 33.125,-42.707 28.596,-65.406 -2.781,-122.934 -5.808,-140.805 0,0 -57.942,70.891 -89.336,69.559"
       style="fill:#ffffff;fill-opacity:1;fill-rule:nonzero;stroke:none"
       id="path52"
       inkscape:connector-curvature="0" /><path
       d="m 887.09,462.379 c 54.348,51.559 69.355,93.121 62.019,113.953 0,0 19.375,-11.25 33.125,-42.707 28.596,-65.406 -2.781,-122.934 -5.808,-140.805 0,0 -57.942,70.891 -89.336,69.559 z"
       style="fill:none;stroke:#231f20;stroke-width:10;stroke-linecap:round;stroke-linejoin:round;stroke-miterlimit:10;stroke-dasharray:none;stroke-opacity:1"
       id="path54"
       inkscape:connector-curvature="0" /><path
       d="m 949.109,576.332 c 0,0 19.375,-11.25 33.125,-42.707 28.596,-65.406 0.676,-119.605 -5.808,-140.805 L 859.473,21.0195"
       style="fill:none;stroke:#231f20;stroke-width:12;stroke-linecap:round;stroke-linejoin:round;stroke-miterlimit:10;stroke-dasharray:none;stroke-opacity:1"
       id="path56"
       inkscape:connector-curvature="0" /><path
       d="m 872.539,384.172 c 0,0 11.133,11.508 28.359,0"
       style="fill:none;stroke:#24487a;stroke-width:7.5;stroke-linecap:round;stroke-linejoin:round;stroke-miterlimit:10;stroke-dasharray:none;stroke-opacity:1"
       id="path58"
       inkscape:connector-curvature="0" /><path
       d="m 922.402,34.5195 c 0,-7.4609 -6.054,-13.5 -13.507,-13.5 -7.45,0 -13.504,6.0391 -13.504,13.5 0,7.461 6.054,13.5 13.504,13.5 7.453,0 13.507,-6.039 13.507,-13.5"
       style="fill:#e0e6e8;fill-opacity:1;fill-rule:nonzero;stroke:none"
       id="path60"
       inkscape:connector-curvature="0" /><path
       d="m 922.402,34.5195 c 0,-7.4609 -6.054,-13.5 -13.507,-13.5 -7.45,0 -13.504,6.0391 -13.504,13.5 0,7.461 6.054,13.5 13.504,13.5 7.453,0 13.507,-6.039 13.507,-13.5 z"
       style="fill:none;stroke:#231f20;stroke-width:10;stroke-linecap:butt;stroke-linejoin:miter;stroke-miterlimit:10;stroke-dasharray:none;stroke-opacity:1"
       id="path62"
       inkscape:connector-curvature="0" /><path
       d="m 263.926,404.672 -16.422,75.301 c 0,0 -57.762,13.984 -138.543,90.175 0,0 -50.836,25.625 -90.7227,47.715 -26.22268,14.563 10.5547,20.45 10.5547,20.45 0,0 -14.5508,10.597 -12.2617,19.843 3.1679,12.832 21.0976,9.328 21.0976,9.328 0,0 -2.0664,11.141 9.3164,17.352 11.1602,6.074 29.2735,1.269 29.2735,1.269 0,0 -1.2657,13.555 9.914,17.375 26.2342,8.993 89.3902,-19.015 142.9492,-61.886 l 12.566,-1.66 c -2.91,5.332 -2.679,10.195 -3.164,16.484 -1.804,22.988 1.141,28.789 8.504,30.801 7.332,2.051 19.731,-7.344 27.528,-19.364 7.812,-12.101 27.48,-39.375 36.734,-50.011 7.113,-8.184 32.004,-46.406 26.063,-84.199 l -9.016,-36.141 12.047,-37.766 -29.114,-23.777 -47.304,-31.289"
       style="fill:#fcd0b4;fill-opacity:1;fill-rule:nonzero;stroke:none"
       id="path64"
       inkscape:connector-curvature="0" /><path
       d="m 264.762,411.328 c -7.196,30.422 -8.703,54.352 -18.981,68.195"
       style="fill:none;stroke:#231f20;stroke-width:14;stroke-linecap:round;stroke-linejoin:round;stroke-miterlimit:10;stroke-dasharray:none;stroke-opacity:1"
       id="path66"
       inkscape:connector-curvature="0" /><path
       d="m 329.395,507.785 c 0,0 0.894,-17.871 11.285,-45.426"
       style="fill:none;stroke:#231f20;stroke-width:14;stroke-linecap:round;stroke-linejoin:round;stroke-miterlimit:10;stroke-dasharray:none;stroke-opacity:1"
       id="path68"
       inkscape:connector-curvature="0" /><path
       d="m 265.387,476.949 c 0,0 -74.68,7.008 -158.051,90.114 0,0 -51.0235,27.187 -90.9688,50.566 -26.3047,15.351 11.1523,20.488 11.1523,20.488 0,0 -14.5351,11.113 -12.0117,20.43 3.5391,12.969 21.6602,8.976 21.6602,8.976 0,0 -1.8203,11.415 9.8359,17.422 11.4649,5.918 29.7734,0.614 29.7734,0.614 0,0 -0.9882,13.73 10.4571,17.421 26.8126,8.516 90.2616,-21.414 143.7036,-66.152"
       style="fill:none;stroke:#231f20;stroke-width:14;stroke-linecap:round;stroke-linejoin:round;stroke-miterlimit:10;stroke-dasharray:none;stroke-opacity:1"
       id="path70"
       inkscape:connector-curvature="0" /><path
       d="m 319.121,491.652 c 36.965,47.434 3.887,108.106 -5.308,119.141 -9.2,11.047 -28.508,39.18 -36.153,51.641 -7.687,12.382 -20.836,26.718 -28.351,24.824 -7.524,-1.914 -12.243,-11.035 -10.918,-34.414 1.32,-23.379 25.672,-42.84 25.672,-42.84 0,0 -20.649,-53.938 9.492,-78.301"
       style="fill:none;stroke:#231f20;stroke-width:14;stroke-linecap:round;stroke-linejoin:round;stroke-miterlimit:10;stroke-dasharray:none;stroke-opacity:1"
       id="path72"
       inkscape:connector-curvature="0" /><path
       d="m 237.742,634.477 c 0,0 -63.992,-0.52 -120.301,-50.071"
       style="fill:none;stroke:#231f20;stroke-width:14;stroke-linecap:round;stroke-linejoin:round;stroke-miterlimit:10;stroke-dasharray:none;stroke-opacity:1"
       id="path74"
       inkscape:connector-curvature="0" /><path
       d="m 27.5195,638.117 c 0,0 40.1407,-4.824 85.0035,-37.91"
       style="fill:none;stroke:#231f20;stroke-width:14;stroke-linecap:round;stroke-linejoin:round;stroke-miterlimit:10;stroke-dasharray:none;stroke-opacity:1"
       id="path76"
       inkscape:connector-curvature="0" /><path
       d="m 36.5781,667.465 c 0,0 57.7813,-5.422 124.6919,-52.09"
       style="fill:none;stroke:#231f20;stroke-width:14;stroke-linecap:round;stroke-linejoin:round;stroke-miterlimit:10;stroke-dasharray:none;stroke-opacity:1"
       id="path78"
       inkscape:connector-curvature="0" /><path
       d="m 75.6133,686.215 c 1.2773,-0.137 66.2777,-11.641 115.6137,-60.293"
       style="fill:none;stroke:#231f20;stroke-width:14;stroke-linecap:round;stroke-linejoin:round;stroke-miterlimit:10;stroke-dasharray:none;stroke-opacity:1"
       id="path80"
       inkscape:connector-curvature="0" /><path
       d="m 334.762,495.832 c 19.054,8.203 22.992,-1.055 22.992,-1.055 0,0 78.59,-213.007 77.336,-210.527"
       style="fill:none;stroke:#231f20;stroke-width:14;stroke-linecap:round;stroke-linejoin:round;stroke-miterlimit:10;stroke-dasharray:none;stroke-opacity:1"
       id="path82"
       inkscape:connector-curvature="0" /><path
       d="m 254.254,453.43 c 0,0 -39.059,-27.071 -36.164,-40.43 0.25,-2.141 95.449,-211.84 110.18,-235.488 27.289,-43.793 51.277,-48.813 80.73,-38.84 77.965,26.367 184.531,106.457 184.531,106.457"
       style="fill:none;stroke:#231f20;stroke-width:14;stroke-linecap:round;stroke-linejoin:round;stroke-miterlimit:10;stroke-dasharray:none;stroke-opacity:1"
       id="path84"
       inkscape:connector-curvature="0" /><path
       d="m 221.352,411.289 c 0,0 9.007,-12.187 37.574,-4.961 43.301,10.961 100.297,55.242 100.683,79.27"
       style="fill:none;stroke:#231f20;stroke-width:14;stroke-linecap:round;stroke-linejoin:round;stroke-miterlimit:10;stroke-dasharray:none;stroke-opacity:1"
       id="path86"
       inkscape:connector-curvature="0" /><path
       d="m 1025.24,248.93 109.98,0 0,-184.2581 -157.134,0 0,119.8481"
       style="fill:none;stroke:#656263;stroke-width:10;stroke-linecap:round;stroke-linejoin:round;stroke-miterlimit:10;stroke-dasharray:none;stroke-opacity:1"
       id="path88"
       inkscape:connector-curvature="0" /><path
       d="m 754.824,79.8086 c 2.188,-8.207 -4.492,-17.1797 -14.961,-20.0586 -10.449,-2.8594 -20.703,1.4688 -22.898,9.6914 -2.199,8.1875 4.5,17.1484 14.949,20.0195 10.449,2.8594 20.715,-1.4804 22.91,-9.6523"
       style="fill:#403c3d;fill-opacity:1;fill-rule:nonzero;stroke:none"
       id="path90"
       inkscape:connector-curvature="0" /><path
       d="m 754.824,79.8086 c 2.188,-8.207 -4.492,-17.1797 -14.961,-20.0586 -10.449,-2.8594 -20.703,1.4688 -22.898,9.6914 -2.199,8.1875 4.5,17.1484 14.949,20.0195 10.449,2.8594 20.715,-1.4804 22.91,-9.6523 z"
       style="fill:none;stroke:#231f20;stroke-width:7.5;stroke-linecap:butt;stroke-linejoin:miter;stroke-miterlimit:10;stroke-dasharray:none;stroke-opacity:1"
       id="path92"
       inkscape:connector-curvature="0" /><path
       d="m 794.172,90.3281 c 2.195,-8.207 12.449,-12.5078 22.898,-9.6367 10.45,2.8672 17.149,11.7969 14.942,20.0196 -2.188,8.187 -12.442,12.527 -22.903,9.641 C 798.672,107.5 791.973,98.5313 794.172,90.3281"
       style="fill:#403c3d;fill-opacity:1;fill-rule:nonzero;stroke:none"
       id="path94"
       inkscape:connector-curvature="0" /><path
       d="m 794.172,90.3281 c 2.195,-8.207 12.449,-12.5078 22.898,-9.6367 10.45,2.8672 17.149,11.7969 14.942,20.0196 -2.188,8.187 -12.442,12.527 -22.903,9.641 C 798.672,107.5 791.973,98.5313 794.172,90.3281 Z"
       style="fill:none;stroke:#231f20;stroke-width:7.5;stroke-linecap:butt;stroke-linejoin:miter;stroke-miterlimit:10;stroke-dasharray:none;stroke-opacity:1"
       id="path96"
       inkscape:connector-curvature="0" /><path
       d="M 1116.94,344.129 C 1105.49,503.852 1001.58,627.023 885.293,618.676 779.824,611.125 699.922,497.895 694.52,357.719 639.457,337.52 611.516,262.371 632.105,185.5 c 5.399,-20.148 36.606,-101.5391 69.887,-120.6406 5.488,-3.1406 10.906,-4.6211 16.199,-4.4492 1.954,0.0703 3.879,0.3593 5.793,0.8906 l -5.273,19.289 c -1.777,-0.4609 -4.043,0.0508 -6.758,1.629 -24.387,13.9921 -54.531,86.0702 -60.531,108.4722 -18.574,69.34 6.137,136.68 55.082,150.079 18.32,5.019 38.066,1.902 57.109,-9.032 29.942,-17.168 54.317,-51.687 65.196,-92.328 10.039,-37.43 15.039,-124.512 -3.204,-129.519 l 5.274,-19.2894 c 47.883,13.1174 17.617,152.5974 17.246,153.9884 -12.227,45.68 -40.098,84.738 -74.562,104.5 -19.278,11.058 -39.364,15.551 -58.836,13.422 6.777,127.265 78.132,229.004 172.031,235.742 105.273,7.551 199.592,-107.098 210.232,-255.555 7.12,-99.39 -25.08,-193.187 -84.04,-244.7888 l 13.03,-15.5899 c 63.69,55.7497 98.54,156.0777 90.96,261.8087"
       style="fill:#7b7979;fill-opacity:1;fill-rule:nonzero;stroke:none"
       id="path98"
       inkscape:connector-curvature="0" /><path
       d="M 1116.94,344.129 C 1105.49,503.852 1001.58,627.023 885.293,618.676 779.824,611.125 699.922,497.895 694.52,357.719 639.457,337.52 611.516,262.371 632.105,185.5 c 5.399,-20.148 36.606,-101.5391 69.887,-120.6406 5.488,-3.1406 10.906,-4.6211 16.199,-4.4492 1.954,0.0703 3.879,0.3593 5.793,0.8906 l -5.273,19.289 c -1.777,-0.4609 -4.043,0.0508 -6.758,1.629 -24.387,13.9921 -54.531,86.0702 -60.531,108.4722 -18.574,69.34 6.137,136.68 55.082,150.079 18.32,5.019 38.066,1.902 57.109,-9.032 29.942,-17.168 54.317,-51.687 65.196,-92.328 10.039,-37.43 15.039,-124.512 -3.204,-129.519 l 5.274,-19.2894 c 47.883,13.1174 17.617,152.5974 17.246,153.9884 -12.227,45.68 -40.098,84.738 -74.562,104.5 -19.278,11.058 -39.364,15.551 -58.836,13.422 6.777,127.265 78.132,229.004 172.031,235.742 105.273,7.551 199.592,-107.098 210.232,-255.555 7.12,-99.39 -25.08,-193.187 -84.04,-244.7888 l 13.03,-15.5899 c 63.69,55.7497 98.54,156.0777 90.96,261.8087 z"
       style="fill:none;stroke:#231f20;stroke-width:7.5;stroke-linecap:round;stroke-linejoin:round;stroke-miterlimit:10;stroke-dasharray:none;stroke-opacity:1"
       id="path100"
       inkscape:connector-curvature="0" /><path
       d="m 1094.02,113.359 c 1.18,-33.7301 -25.22,-62.0074 -58.94,-63.1676 -33.74,-1.1719 -62.014,25.2188 -63.185,58.9496 -1.153,33.73 25.234,62.007 58.965,63.168 33.73,1.171 62.01,-25.219 63.16,-58.95"
       style="fill:#a7a5a6;fill-opacity:1;fill-rule:nonzero;stroke:none"
       id="path102"
       inkscape:connector-curvature="0" /><path
       d="m 1094.02,113.359 c 1.18,-33.7301 -25.22,-62.0074 -58.94,-63.1676 -33.74,-1.1719 -62.014,25.2188 -63.185,58.9496 -1.153,33.73 25.234,62.007 58.965,63.168 33.73,1.171 62.01,-25.219 63.16,-58.95 z"
       style="fill:none;stroke:#231f20;stroke-width:10;stroke-linecap:butt;stroke-linejoin:miter;stroke-miterlimit:10;stroke-dasharray:none;stroke-opacity:1"
       id="path104"
       inkscape:connector-curvature="0" /><path
       d="m 1074.36,112.691 c 0.78,-22.8629 -17.11,-42.0426 -39.97,-42.8199 -22.87,-0.8008 -42.027,17.1094 -42.82,39.9569 -0.789,22.863 17.1,42.031 39.97,42.813 22.85,0.789 42.02,-17.102 42.82,-39.95"
       style="fill:#7b7979;fill-opacity:1;fill-rule:nonzero;stroke:none"
       id="path106"
       inkscape:connector-curvature="0" /><path
       d="m 1074.36,112.691 c 0.78,-22.8629 -17.11,-42.0426 -39.97,-42.8199 -22.87,-0.8008 -42.027,17.1094 -42.82,39.9569 -0.789,22.863 17.1,42.031 39.97,42.813 22.85,0.789 42.02,-17.102 42.82,-39.95 z"
       style="fill:none;stroke:#231f20;stroke-width:5;stroke-linecap:butt;stroke-linejoin:miter;stroke-miterlimit:10;stroke-dasharray:none;stroke-opacity:1"
       id="path108"
       inkscape:connector-curvature="0" /><path
       d="m 556.379,994.621 c 0,0 -61.926,242.829 72.012,338.379 0,0 20.742,45 115.144,98.41 121.278,68.6 289.105,40.43 314.825,-42.87 0,0 71.38,-11.65 118.83,-79.63 45.33,-64.92 64.92,-128.59 42.47,-312.344 l 0.32,-85.097 -648.359,-48.977 -15.242,132.129"
       style="fill:#291d16;fill-opacity:1;fill-rule:nonzero;stroke:none"
       id="path110"
       inkscape:connector-curvature="0" /><path
       d="m 628.391,1303.25 c 0,0 20.742,45 115.144,98.4 121.278,68.61 289.105,40.43 314.825,-42.87 0,0 71.38,-11.65 118.83,-79.63 30.74,-44.02 49.62,-87.52 51.6,-168.22 2.26,100.35 -17.29,148.83 -51.6,197.98 -47.45,67.98 -118.83,79.63 -118.83,79.63 -25.72,83.3 -193.547,111.47 -314.825,42.87 C 649.133,1378 628.391,1333 628.391,1333 c -74.473,-53.13 -88.368,-151.78 -86.047,-228.91 2.121,71.29 20.863,152.65 86.047,199.16"
       style="fill:#806a5d;fill-opacity:1;fill-rule:nonzero;stroke:none"
       id="path112"
       inkscape:connector-curvature="0" /><path
       d="m 1219.66,966.809 0.2,-55.352 0.12,0.012 -0.21,56.277 c -0.04,-0.312 -0.07,-0.625 -0.11,-0.937"
       style="fill:#644a3f;fill-opacity:1;fill-rule:nonzero;stroke:none"
       id="path114"
       inkscape:connector-curvature="0" /><path
       d="m 1181.56,963.461 c 0,0 60.35,48.389 83.03,-27.492 26.04,-87.176 -61.25,-182.215 -100.86,-189.649"
       style="fill:#fcd0b4;fill-opacity:1;fill-rule:nonzero;stroke:none"
       id="path116"
       inkscape:connector-curvature="0" /><path
       d="m 1181.56,963.461 c 0,0 60.35,48.389 83.03,-27.492 26.04,-87.176 -61.25,-182.215 -100.86,-189.649"
       style="fill:none;stroke:#231f20;stroke-width:14;stroke-linecap:round;stroke-linejoin:round;stroke-miterlimit:10;stroke-dasharray:none;stroke-opacity:1"
       id="path118"
       inkscape:connector-curvature="0" /><path
       d="m 1221.29,851.586 c -12.41,-28.234 -35.93,-45.176 -52.53,-37.883 -16.61,7.297 -20.01,36.106 -7.59,64.336 12.42,28.215 35.94,45.168 52.54,37.863 16.6,-7.297 19.98,-36.105 7.58,-64.316"
       style="fill:#e59686;fill-opacity:1;fill-rule:nonzero;stroke:none"
       id="path120"
       inkscape:connector-curvature="0" /><path
       d="m 1238.44,937.121 c 0,0 -32.05,14.094 -56.88,-40.613"
       style="fill:none;stroke:#231f20;stroke-width:14;stroke-linecap:round;stroke-linejoin:round;stroke-miterlimit:10;stroke-dasharray:none;stroke-opacity:1"
       id="path122"
       inkscape:connector-curvature="0" /><path
       d="m 591.355,963.461 c 0,0 -60.355,48.389 -83.027,-27.492 -26.039,-87.176 61.246,-182.215 100.86,-189.649"
       style="fill:#fcd0b4;fill-opacity:1;fill-rule:nonzero;stroke:none"
       id="path124"
       inkscape:connector-curvature="0" /><path
       d="m 591.355,963.461 c 0,0 -60.355,48.389 -83.027,-27.492 -26.039,-87.176 61.246,-182.215 100.86,-189.649"
       style="fill:none;stroke:#231f20;stroke-width:14;stroke-linecap:round;stroke-linejoin:round;stroke-miterlimit:10;stroke-dasharray:none;stroke-opacity:1"
       id="path126"
       inkscape:connector-curvature="0" /><path
       d="m 541.563,853.215 c 12.414,-28.211 35.925,-45.176 52.535,-37.879 16.601,7.305 20,36.094 7.578,64.324 -12.414,28.215 -35.938,45.176 -52.535,37.863 -16.602,-7.296 -19.981,-36.074 -7.578,-64.308"
       style="fill:#e59686;fill-opacity:1;fill-rule:nonzero;stroke:none"
       id="path128"
       inkscape:connector-curvature="0" /><path
       d="m 534.473,937.121 c 0,0 32.054,14.094 56.882,-40.613"
       style="fill:none;stroke:#231f20;stroke-width:14;stroke-linecap:round;stroke-linejoin:round;stroke-miterlimit:10;stroke-dasharray:none;stroke-opacity:1"
       id="path130"
       inkscape:connector-curvature="0" /><path
       d="m 1130.79,1242.68 c 74.87,-200.64 64.58,-469.114 -11.58,-570.95 -58.8,-78.621 -138.019,-123.679 -232.745,-123.679 -94.735,0 -173.953,45.058 -232.758,123.679 -79.93,106.868 -86.566,402.67 0.82,602.42 l 1.661,2.12 c 74.359,51.44 187.796,54.84 187.796,54.84 0,0 -70.546,-34.19 -60.371,-45.36 10.567,-11.6 78.164,-17.36 140.41,0.43 89.837,25.67 112.287,62.37 112.287,62.37 0,0 5.69,-75.75 97.38,-107.12"
       style="fill:#fcd0b4;fill-opacity:1;fill-rule:nonzero;stroke:none"
       id="path132"
       inkscape:connector-curvature="0" /><path
       d="m 1130.79,1242.68 c 74.87,-200.64 64.58,-469.114 -11.58,-570.95 -58.8,-78.621 -138.019,-123.679 -232.745,-123.679 -94.735,0 -173.953,45.058 -232.758,123.679 -79.93,106.868 -86.566,402.67 0.82,602.42 l 1.661,2.12 c 74.359,51.44 187.796,54.84 187.796,54.84 0,0 -70.546,-34.19 -60.371,-45.36 10.567,-11.6 78.164,-17.36 140.41,0.43 89.837,25.67 112.287,62.37 112.287,62.37 0,0 5.69,-75.75 97.38,-107.12"
       style="fill:none;stroke:#231f20;stroke-width:14;stroke-linecap:round;stroke-linejoin:round;stroke-miterlimit:10;stroke-dasharray:none;stroke-opacity:1"
       id="path134"
       inkscape:connector-curvature="0" /><path
       d="m 592.867,978.801 64.074,0"
       style="fill:none;stroke:#231f20;stroke-width:14;stroke-linecap:round;stroke-linejoin:round;stroke-miterlimit:10;stroke-dasharray:none;stroke-opacity:1"
       id="path136"
       inkscape:connector-curvature="0" /><path
       d="m 707.773,911.477 c 0,-14.454 -23.085,-26.172 -51.574,-26.172 -28.48,0 -51.594,11.718 -51.594,26.172 0,14.453 23.114,26.144 51.594,26.144 28.489,0 51.574,-11.691 51.574,-26.144"
       style="fill:#f6807f;fill-opacity:1;fill-rule:nonzero;stroke:none"
       id="path138"
       inkscape:connector-curvature="0" /><path
       d="m 1160.21,911.477 c 0,-14.454 -23.09,-26.172 -51.58,-26.172 -28.47,0 -51.59,11.718 -51.59,26.172 0,14.453 23.12,26.144 51.59,26.144 28.49,0 51.58,-11.691 51.58,-26.144"
       style="fill:#f6807f;fill-opacity:1;fill-rule:nonzero;stroke:none"
       id="path140"
       inkscape:connector-curvature="0" /><path
       d="m 755.508,773.742 c 0,0 46.387,-85.937 130.957,-85.937 84.59,0 130.895,85.937 130.895,85.937"
       style="fill:none;stroke:#231f20;stroke-width:13.56999969;stroke-linecap:round;stroke-linejoin:round;stroke-miterlimit:10;stroke-dasharray:none;stroke-opacity:1"
       id="path142"
       inkscape:connector-curvature="0" /><path
       d="m 804.18,984.738 c 0,-36.601 -23.379,-66.258 -52.207,-66.258 -28.828,0 -52.188,29.657 -52.188,66.258 0,36.602 23.36,66.272 52.188,66.272 28.828,0 52.207,-29.67 52.207,-66.272"
       style="fill:#ffffff;fill-opacity:1;fill-rule:nonzero;stroke:none"
       id="path144"
       inkscape:connector-curvature="0" /><path
       d="m 793.047,981.379 c 0,-19.695 -12.18,-35.703 -27.207,-35.703 -15.027,0 -27.227,16.008 -27.227,35.703 0,19.721 12.2,35.681 27.227,35.681 15.027,0 27.207,-15.96 27.207,-35.681"
       style="fill:#231f20;fill-opacity:1;fill-rule:nonzero;stroke:none"
       id="path146"
       inkscape:connector-curvature="0" /><path
       d="m 698.672,997.102 c 0,0 5.547,40.428 43.308,51.668 44.192,13.14 55.52,-31.46 55.52,-31.46 0,0 -23.008,17.11 -50.43,10.12 -25.84,-6.59 -48.398,-30.328 -48.398,-30.328"
       style="fill:#deedfa;fill-opacity:1;fill-rule:nonzero;stroke:none"
       id="path148"
       inkscape:connector-curvature="0" /><path
       d="m 797.5,1017.31 c 0,0 -11.328,44.6 -55.52,31.46 -37.761,-11.24 -43.308,-51.668 -43.308,-51.668"
       style="fill:none;stroke:#231f20;stroke-width:14;stroke-linecap:round;stroke-linejoin:round;stroke-miterlimit:10;stroke-dasharray:none;stroke-opacity:1"
       id="path150"
       inkscape:connector-curvature="0" /><path
       d="m 793.66,1000.38 c 0,-4.646 -3.726,-8.415 -8.328,-8.415 -4.602,0 -8.328,3.769 -8.328,8.415 0,4.64 3.726,8.41 8.328,8.41 4.602,0 8.328,-3.77 8.328,-8.41"
       style="fill:#ffffff;fill-opacity:1;fill-rule:nonzero;stroke:none"
       id="path152"
       inkscape:connector-curvature="0" /><path
       d="m 968.75,984.738 c 0,-36.601 23.359,-66.258 52.19,-66.258 28.84,0 52.19,29.657 52.19,66.258 0,36.602 -23.35,66.272 -52.19,66.272 -28.831,0 -52.19,-29.67 -52.19,-66.272"
       style="fill:#ffffff;fill-opacity:1;fill-rule:nonzero;stroke:none"
       id="path154"
       inkscape:connector-curvature="0" /><path
       d="m 979.863,981.379 c 0,-19.695 12.188,-35.703 27.207,-35.703 15.04,0 27.23,16.008 27.23,35.703 0,19.721 -12.19,35.681 -27.23,35.681 -15.019,0 -27.207,-15.96 -27.207,-35.681"
       style="fill:#231f20;fill-opacity:1;fill-rule:nonzero;stroke:none"
       id="path156"
       inkscape:connector-curvature="0" /><path
       d="m 1074.25,997.102 c 0,0 -5.56,40.428 -43.31,51.668 -44.202,13.14 -55.53,-31.46 -55.53,-31.46 0,0 23.008,17.11 50.43,10.12 25.85,-6.59 48.41,-30.328 48.41,-30.328"
       style="fill:#deedfa;fill-opacity:1;fill-rule:nonzero;stroke:none"
       id="path158"
       inkscape:connector-curvature="0" /><path
       d="m 975.41,1017.31 c 0,0 11.328,44.6 55.53,31.46 37.75,-11.24 43.31,-51.668 43.31,-51.668"
       style="fill:none;stroke:#231f20;stroke-width:14;stroke-linecap:round;stroke-linejoin:round;stroke-miterlimit:10;stroke-dasharray:none;stroke-opacity:1"
       id="path160"
       inkscape:connector-curvature="0" /><path
       d="m 1015.39,1000.38 c 0,-4.646 3.73,-8.415 8.34,-8.415 4.59,0 8.32,3.769 8.32,8.415 0,4.64 -3.73,8.41 -8.32,8.41 -4.61,0 -8.34,-3.77 -8.34,-8.41"
       style="fill:#ffffff;fill-opacity:1;fill-rule:nonzero;stroke:none"
       id="path162"
       inkscape:connector-curvature="0" /><path
       d="m 857.305,984.828 c 0,0 32.07,9.051 55.925,-3.449"
       style="fill:none;stroke:#231f20;stroke-width:14;stroke-linecap:round;stroke-linejoin:round;stroke-miterlimit:10;stroke-dasharray:none;stroke-opacity:1"
       id="path164"
       inkscape:connector-curvature="0" /><path
       d="m 554.758,984.691 c 0,0 -60.305,252.759 73.633,348.309 0,0 20.742,45 115.144,98.41 121.278,68.6 289.105,40.43 314.825,-42.87 0,0 71.38,-11.65 118.83,-79.63 45.33,-64.92 64.92,-146.02 42.47,-329.765"
       style="fill:none;stroke:#231f20;stroke-width:14;stroke-linecap:round;stroke-linejoin:round;stroke-miterlimit:10;stroke-dasharray:none;stroke-opacity:1"
       id="path166"
       inkscape:connector-curvature="0" /><path
       d="m 835.645,1120.4 c -4.297,10.01 -14.075,21.62 -27.266,30.56 -13.106,9.06 -29.629,15.55 -45.723,17.68 -16.093,2.28 -31.386,-0.01 -41.484,-3.41 -20.637,-6.64 -35.02,-20.8 -42.012,-31.96 -7.168,-11.36 -8.301,-19.83 -5.449,-21.68 6.277,-4.24 25.293,19.62 55.398,29.26 7.473,2.51 18.567,4.88 31.301,4.28 12.688,-0.5 26.778,-4.05 38.848,-9.81 12.129,-5.67 22.019,-13.44 27.91,-20.17 4.414,-5.24 10.527,-2.47 8.477,5.25"
       style="fill:#291d16;fill-opacity:1;fill-rule:nonzero;stroke:none"
       id="path168"
       inkscape:connector-curvature="0" /><path
       d="m 835.645,1120.4 c -4.297,10.01 -14.075,21.62 -27.266,30.56 -13.106,9.06 -29.629,15.55 -45.723,17.68 -16.093,2.28 -31.386,-0.01 -41.484,-3.41 -20.637,-6.64 -35.02,-20.8 -42.012,-31.96 -7.168,-11.36 -8.301,-19.83 -5.449,-21.68 6.277,-4.24 25.293,19.62 55.398,29.26 7.473,2.51 18.567,4.88 31.301,4.28 12.688,-0.5 26.778,-4.05 38.848,-9.81 12.129,-5.67 22.019,-13.44 27.91,-20.17 4.414,-5.24 10.527,-2.47 8.477,5.25 z"
       style="fill:none;stroke:#291d16;stroke-width:7.5;stroke-linecap:butt;stroke-linejoin:miter;stroke-miterlimit:10;stroke-dasharray:none;stroke-opacity:1"
       id="path170"
       inkscape:connector-curvature="0" /><path
       d="m 937.273,1120.4 c 4.297,10.01 14.075,21.62 27.258,30.56 13.106,9.06 29.629,15.55 45.719,17.68 16.11,2.28 31.39,-0.01 41.5,-3.41 20.63,-6.64 35.01,-20.8 42,-31.96 7.18,-11.36 8.3,-19.83 5.45,-21.68 -6.27,-4.24 -25.29,19.62 -55.39,29.26 -7.48,2.51 -18.57,4.88 -31.3,4.28 -12.686,-0.5 -26.768,-4.05 -38.85,-9.81 -12.137,-5.67 -22.019,-13.44 -27.906,-20.17 -4.426,-5.24 -10.539,-2.47 -8.481,5.25"
       style="fill:#291d16;fill-opacity:1;fill-rule:nonzero;stroke:none"
       id="path172"
       inkscape:connector-curvature="0" /><path
       d="m 937.273,1120.4 c 4.297,10.01 14.075,21.62 27.258,30.56 13.106,9.06 29.629,15.55 45.719,17.68 16.11,2.28 31.39,-0.01 41.5,-3.41 20.63,-6.64 35.01,-20.8 42,-31.96 7.18,-11.36 8.3,-19.83 5.45,-21.68 -6.27,-4.24 -25.29,19.62 -55.39,29.26 -7.48,2.51 -18.57,4.88 -31.3,4.28 -12.686,-0.5 -26.768,-4.05 -38.85,-9.81 -12.137,-5.67 -22.019,-13.44 -27.906,-20.17 -4.426,-5.24 -10.539,-2.47 -8.481,5.25 z"
       style="fill:none;stroke:#291d16;stroke-width:7.5;stroke-linecap:butt;stroke-linejoin:miter;stroke-miterlimit:10;stroke-dasharray:none;stroke-opacity:1"
       id="path174"
       inkscape:connector-curvature="0" /><path
       d="m 869.023,940.102 c 0,0 7.442,-28.215 2.481,-57.266"
       style="fill:none;stroke:#231f20;stroke-width:14;stroke-linecap:round;stroke-linejoin:round;stroke-miterlimit:10;stroke-dasharray:none;stroke-opacity:1"
       id="path176"
       inkscape:connector-curvature="0" /><path
       d="m 884.395,898.891 c 0,0 -29.961,-37.453 -30.711,-50.93 -0.754,-13.477 24.617,-35.945 24.617,-35.945"
       style="fill:none;stroke:#231f20;stroke-width:14;stroke-linecap:round;stroke-linejoin:round;stroke-miterlimit:10;stroke-dasharray:none;stroke-opacity:1"
       id="path178"
       inkscape:connector-curvature="0" /><path
       d="m 858.066,978.168 c 0,-55.539 -45.019,-100.547 -100.566,-100.547 -55.527,0 -100.559,45.008 -100.559,100.547 0,55.542 45.032,100.562 100.559,100.562 55.547,0 100.566,-45.02 100.566,-100.562 z"
       style="fill:none;stroke:#231f20;stroke-width:16;stroke-linecap:round;stroke-linejoin:round;stroke-miterlimit:10;stroke-dasharray:none;stroke-opacity:1"
       id="path180"
       inkscape:connector-curvature="0" /><path
       d="m 1180.06,978.801 -64.08,0"
       style="fill:none;stroke:#231f20;stroke-width:14;stroke-linecap:round;stroke-linejoin:round;stroke-miterlimit:10;stroke-dasharray:none;stroke-opacity:1"
       id="path182"
       inkscape:connector-curvature="0" /><path
       d="m 914.863,978.168 c 0,-55.539 45.02,-100.547 100.547,-100.547 55.55,0 100.57,45.008 100.57,100.547 0,55.542 -45.02,100.562 -100.57,100.562 -55.527,0 -100.547,-45.02 -100.547,-100.562 z"
       style="fill:none;stroke:#231f20;stroke-width:16;stroke-linecap:round;stroke-linejoin:round;stroke-miterlimit:10;stroke-dasharray:none;stroke-opacity:1"
       id="path184"
       inkscape:connector-curvature="0" /></g></svg>